HIERARCHY
ROOT Hips
{
   OFFSET 0.00000 0.00000 0.00000
   CHANNELS 6 Xposition Yposition Zposition Zrotation Xrotation Yrotation
   JOINT RightUpLeg
   {
      OFFSET -10.734961 -10.400485 0.121982
      CHANNELS 3 Zrotation Xrotation Yrotation
      JOINT RightLeg
      {
         OFFSET 0.000000 -53.307237 1.647240
         CHANNELS 3 Zrotation Xrotation Yrotation
         JOINT RightFoot
         {
            OFFSET 0.304259 -50.510883 -1.752708
            CHANNELS 3 Zrotation Xrotation Yrotation
            JOINT RightToes
            {
               OFFSET 0.048000 -5.298108 10.198920
               CHANNELS 3 Zrotation Xrotation Yrotation
               End Site
               {
                  OFFSET -0.096000 -0.164938 11.735748
               }
            }
         }
      }
   }
   JOINT Spine
   {
      OFFSET 0.000000 14.268601 0.000000
      CHANNELS 3 Zrotation Xrotation Yrotation
      JOINT Spine1
      {
         OFFSET 0.000000 30.788881 0.153196
         CHANNELS 3 Zrotation Xrotation Yrotation
         JOINT HEad
         {
            OFFSET 0.000000 10.480993 0.013609
            CHANNELS 3 Zrotation Xrotation Yrotation
            End Site
            {
               OFFSET -0.348000 15.329041 3.016740
            }
         }
         JOINT LeftShoulder1
         {
            OFFSET 10.788001 -0.434702 -0.264000
            CHANNELS 3 Zrotation Xrotation Yrotation
            JOINT LeftArm
            {
               OFFSET 12.339240 -0.004056 0.386548
               CHANNELS 3 Zrotation Xrotation Yrotation
               JOINT LeftForeArm
               {
                  OFFSET 39.320280 0.118973 -1.709208
                  CHANNELS 3 Zrotation Xrotation Yrotation
                  JOINT LeftHand
                  {
                     OFFSET 33.077163 0.102434 1.226592
                     CHANNELS 3 Zrotation Xrotation Yrotation
                     End Site
                     {
                        OFFSET 20.093162 -0.720000 1.803492
                     }
                  }
               }
            }
         }
         JOINT RightShoulder
         {
            OFFSET -10.788001 -0.434702 -0.264000
            CHANNELS 3 Zrotation Xrotation Yrotation
            JOINT RightArm
            {
               OFFSET -12.339240 -0.004056 0.386548
               CHANNELS 3 Zrotation Xrotation Yrotation
               JOINT RightForeArm
               {
                  OFFSET -39.476518 0.118973 -1.709208
                  CHANNELS 3 Zrotation Xrotation Yrotation
                  JOINT RightHand
                  {
                     OFFSET -32.990522 0.102434 1.226592
                     CHANNELS 3 Zrotation Xrotation Yrotation
                     End Site
                     {
                        OFFSET -19.957442 -0.720000 1.803492
                     }
                  }
               }
            }
         }
      }
   }
   JOINT LeftUpLeg
   {
      OFFSET 10.734961 -10.400485 0.121982
      CHANNELS 3 Zrotation Xrotation Yrotation
      JOINT LeftLeg
      {
         OFFSET 0.000000 -53.307237 1.647240
         CHANNELS 3 Zrotation Xrotation Yrotation
         JOINT LeftFoot
         {
            OFFSET -0.304259 -50.510883 -1.752708
            CHANNELS 3 Zrotation Xrotation Yrotation
            JOINT LeftToes
            {
               OFFSET -0.048000 -5.298108 10.198920
               CHANNELS 3 Zrotation Xrotation Yrotation
               End Site
               {
                  OFFSET 0.096000 -0.056938 11.735748
               }
            }
         }
      }
   }
}
MOTION
Frames: 6
Frame Time: 0.016667
-961.206269 104.545792 360.888094 162.473562 -82.396513 147.950503 -40.049190 71.566900 65.658950 13.973951 31.847082 34.373685 -40.150362 24.255400 5.185179 21.030545 -17.538169 -61.606401 70.084400 76.657125 96.256811 10.882225 8.729357 -143.668535 12.009588 72.967819 30.548960 -39.500094 123.824650 85.862574 -72.358170 95.014768 89.695280 -37.528153 146.815900 -30.485911 -77.074020 -53.315842 -113.751541 62.559636 -22.881661 39.150217 183.809434 -89.377178 188.447774 53.036081 106.717382 78.076835 -9.583772 -36.586482 -27.993667 -13.473918 83.497198 51.943930 16.824745 15.509749 -7.839923 -61.204451 30.625766 29.498446 17.734769 -19.230196 -36.596843
-961.793122 104.123839 359.831995 171.739738 -84.148962 157.281976 -47.369630 69.418279 68.835671 12.374957 33.608718 40.921719 -40.778231 22.648433 5.778879 20.111302 -17.644544 -60.792993 75.957803 71.389294 95.959179 18.219547 7.590978 -148.321697 15.332306 71.812206 28.914209 -48.753129 131.684777 97.846667 292.248003 107.381645 72.267602 -42.495470 148.851597 -29.977519 -84.000986 -50.328522 -121.594730 68.182500 -19.178857 38.026744 184.192580 -87.397714 189.487862 54.568290 108.525825 78.423269 -10.208575 -38.728146 -29.691864 -16.775520 82.331872 51.358593 15.692004 15.546501 -4.474168 -58.655868 27.290647 28.108832 17.940189 -20.798841 -36.270886
-962.705598 103.497456 358.868594 174.221802 -85.212627 160.195393 -56.102914 69.303068 70.315397 8.704294 34.857317 49.557879 -51.817237 25.416116 7.166513 20.414296 -15.913103 -60.559210 78.056433 67.323617 100.276883 20.669308 9.695602 -152.118982 19.837794 70.415159 25.746490 -60.509554 134.210321 111.090957 301.995475 123.969805 61.947548 -45.084706 150.487441 -28.598858 -87.402352 -49.090506 -130.149856 71.873165 -18.503986 39.179048 182.068364 -88.108778 193.271008 55.946308 111.796570 79.511523 -11.214150 -39.683727 -33.970093 -19.087396 81.925339 49.794927 14.266298 15.310089 0.677989 -54.694662 23.498467 26.676646 18.376600 -21.420322 -35.744163
-963.975358 102.959784 357.849116 172.801068 -82.555779 162.053915 -65.442781 70.059538 76.380865 3.709229 39.601338 65.227016 -42.600809 19.356184 9.093857 18.652159 -17.889165 -59.639771 82.353169 66.260744 104.491676 19.375604 9.878380 -157.337888 25.964180 70.415398 21.110677 -74.467107 131.192675 125.726885 320.159271 139.971449 59.743166 -47.226943 149.600513 -24.448169 -90.081111 -56.844529 -125.286870 76.496534 -21.309365 35.653772 180.757814 -91.723683 196.134756 55.822777 111.847578 80.093038 -13.568826 -41.480832 -38.804367 -19.530072 84.169767 45.962648 16.311955 14.474745 7.067992 -49.544601 20.516509 25.652218 18.895119 -21.444783 -34.753239
-965.551057 102.245177 356.680979 164.915450 -80.006719 154.964520 -79.340406 69.267592 80.316973 -6.310374 41.208792 81.742720 -42.121678 16.890156 10.068343 17.428705 -18.838077 -58.659399 84.349483 70.620932 107.709843 18.768410 8.438834 -162.295417 32.669560 70.288111 15.653836 -88.242124 134.265974 136.457781 330.316090 151.533211 54.938688 -51.218284 149.431726 -20.043124 -94.978145 -47.893628 -142.646520 81.648641 -23.076076 35.027788 179.812175 -92.713766 198.560607 54.460339 112.572323 79.811006 -16.860401 -42.391798 -44.348077 -17.899769 85.096815 42.393188 15.638201 16.175893 14.932448 -44.030251 16.888560 24.415809 18.667665 -22.702891 -32.911512
-967.509828 101.270083 355.414767 154.462993 -76.934882 143.309649 -91.213748 66.206786 82.800969 -15.077122 40.990434 94.853665 -36.392382 14.598652 9.699618 16.380643 -19.953891 -58.414216 82.499956 75.339309 112.890227 17.480670 9.122125 -165.982831 38.376377 70.186587 11.338024 -101.639902 136.682071 147.810730 343.705665 163.466494 52.747860 -53.431412 150.008740 -15.433984 -100.638541 -49.033925 -141.290181 86.161395 -25.065456 33.912026 178.975545 -93.731704 200.705068 61.974404 111.802663 74.421830 -20.072065 -39.177101 -48.626924 -17.295518 85.620103 38.324874 13.610507 17.223010 19.125062 -39.709371 16.358762 22.002544 19.083509 -22.067824 -31.616785
